<svg xmlns="http://www.w3.org/2000/svg" width="250" height="42" viewBox="0 0 250 42" fill="none">
<path d="M42 21C42 9.408 32.592 0 21 0C9.408 0 0 9.408 0 21C0 31.164 7.224 39.627 16.8 41.58V27.3H12.6V21H16.8V15.75C16.8 11.697 20.097 8.4 24.15 8.4H29.4V14.7H25.2C24.045 14.7 23.1 15.645 23.1 16.8V21H29.4V27.3H23.1V41.895C33.705 40.845 42 31.899 42 21Z" fill="#1DA1F2"/>
<path d="M90.3 0C78.7031 0 69.3 9.40313 69.3 21C69.3 32.5969 78.7031 42 90.3 42C101.897 42 111.3 32.5969 111.3 21C111.3 9.40313 101.897 0 90.3 0ZM100.392 15.8297C100.406 16.05 100.406 16.2797 100.406 16.5047C100.406 23.3859 95.1656 31.3125 85.5891 31.3125C82.6359 31.3125 79.8984 30.4547 77.5922 28.9781C78.014 29.025 78.4172 29.0437 78.8484 29.0437C81.2859 29.0437 83.5266 28.2188 85.3125 26.8219C83.025 26.775 81.1031 25.275 80.4469 23.2125C81.2484 23.3297 81.9703 23.3297 82.7953 23.1188C81.6175 22.8795 80.5588 22.2398 79.7991 21.3084C79.0395 20.377 78.6257 19.2113 78.6281 18.0094V17.9437C79.3172 18.3328 80.1281 18.5719 80.9766 18.6047C80.2633 18.1293 79.6784 17.4854 79.2736 16.7298C78.8689 15.9743 78.6568 15.1306 78.6562 14.2734C78.6562 13.3031 78.9094 12.4172 79.3641 11.6484C80.6714 13.2578 82.3028 14.5741 84.1522 15.5117C86.0015 16.4493 88.0275 16.9873 90.0984 17.0906C89.3625 13.5516 92.0062 10.6875 95.1844 10.6875C96.6844 10.6875 98.0344 11.3156 98.9859 12.3281C100.162 12.1078 101.287 11.6672 102.291 11.0766C101.902 12.2812 101.086 13.2984 100.003 13.9406C101.053 13.8281 102.066 13.5375 103.003 13.1297C102.295 14.1703 101.409 15.0938 100.392 15.8297Z" fill="#1DA1F2"/>
<path d="M228.9 0C217.302 0 207.9 9.40188 207.9 21C207.9 32.5981 217.302 42 228.9 42C240.498 42 249.9 32.5981 249.9 21C249.9 9.40188 240.498 0 228.9 0ZM223.759 29.7041H219.507V16.0191H223.759V29.7041ZM221.607 14.3391C220.264 14.3391 219.395 13.3875 219.395 12.2106C219.395 11.0097 220.29 10.0866 221.662 10.0866C223.033 10.0866 223.873 11.0097 223.899 12.2106C223.899 13.3875 223.033 14.3391 221.607 14.3391ZM239.291 29.7041H235.038V22.12C235.038 20.3547 234.421 19.1559 232.883 19.1559C231.709 19.1559 231.011 19.9675 230.703 20.7484C230.589 21.0263 230.56 21.42 230.56 21.8116V29.7019H226.306V20.3831C226.306 18.6747 226.251 17.2463 226.194 16.0169H229.889L230.083 17.9178H230.169C230.729 17.0253 232.1 15.7084 234.395 15.7084C237.193 15.7084 239.291 17.5831 239.291 21.6125V29.7041Z" fill="#1DA1F2"/>
<path d="M166.162 21C166.162 22.7405 165.471 24.4097 164.24 25.6404C163.01 26.8711 161.34 27.5625 159.6 27.5625C157.859 27.5625 156.19 26.8711 154.96 25.6404C153.729 24.4097 153.037 22.7405 153.037 21C153.037 20.6259 153.077 20.2606 153.145 19.9062H150.85V28.6497C150.85 29.2578 151.342 29.75 151.95 29.75H167.252C167.543 29.7494 167.823 29.6332 168.028 29.427C168.234 29.2207 168.35 28.9411 168.35 28.6497V19.9062H166.055C166.123 20.2606 166.162 20.6259 166.162 21ZM159.6 25.375C160.175 25.3749 160.744 25.2615 161.275 25.0415C161.805 24.8214 162.288 24.499 162.694 24.0925C163.1 23.686 163.422 23.2035 163.642 22.6726C163.862 22.1416 163.975 21.5725 163.975 20.9978C163.975 20.4231 163.861 19.8541 163.641 19.3232C163.421 18.7924 163.099 18.31 162.692 17.9038C162.286 17.4975 161.804 17.1753 161.273 16.9555C160.742 16.7357 160.172 16.6227 159.598 16.6228C158.437 16.6231 157.324 17.0844 156.504 17.9053C155.683 18.7262 155.222 19.8394 155.223 21C155.223 22.1606 155.684 23.2736 156.505 24.094C157.326 24.9145 158.439 25.3753 159.6 25.375ZM164.85 16.4062H167.473C167.647 16.4063 167.814 16.3372 167.938 16.2142C168.061 16.0912 168.131 15.9242 168.131 15.75V13.1272C168.131 12.9526 168.062 12.7851 167.938 12.6616C167.815 12.5381 167.647 12.4688 167.473 12.4688H164.85C164.675 12.4688 164.508 12.5381 164.384 12.6616C164.261 12.7851 164.192 12.9526 164.192 13.1272V15.75C164.194 16.1109 164.489 16.4062 164.85 16.4062ZM159.6 0C154.03 0 148.689 2.21249 144.751 6.15076C140.812 10.089 138.6 15.4305 138.6 21C138.6 26.5695 140.812 31.911 144.751 35.8492C148.689 39.7875 154.03 42 159.6 42C162.358 42 165.088 41.4568 167.636 40.4015C170.184 39.3461 172.499 37.7993 174.449 35.8492C176.399 33.8992 177.946 31.5842 179.001 29.0364C180.057 26.4885 180.6 23.7578 180.6 21C180.6 18.2422 180.057 15.5115 179.001 12.9636C177.946 10.4158 176.399 8.10079 174.449 6.15076C172.499 4.20073 170.184 2.65388 167.636 1.59853C165.088 0.543181 162.358 0 159.6 0ZM170.537 29.5072C170.537 30.8438 169.444 31.9375 168.107 31.9375H151.093C149.756 31.9375 148.662 30.8438 148.662 29.5072V12.4928C148.662 11.1562 149.756 10.0625 151.093 10.0625H168.107C169.444 10.0625 170.537 11.1562 170.537 12.4928V29.5072Z" fill="#1DA1F2"/>
</svg>