<svg width="124" height="88" viewBox="0 0 124 88" fill="none" xmlns="http://www.w3.org/2000/svg">
<path id="Vector" d="M121.384 13.7388C120.678 11.081 119.297 8.65773 117.377 6.7115C115.457 4.76528 113.067 3.36437 110.446 2.64898C100.792 8.02838e-07 62 0 62 0C62 0 23.2078 8.02838e-07 13.554 2.64898C10.9326 3.36437 8.54254 4.76528 6.62296 6.7115C4.70338 8.65773 3.32164 11.081 2.61605 13.7388C0.813476 23.7208 -0.0612637 33.8523 0.00333204 44C-0.0612637 54.1477 0.813476 64.2792 2.61605 74.2612C3.32164 76.919 4.70338 79.3423 6.62296 81.2885C8.54254 83.2347 10.9326 84.6356 13.554 85.351C23.2078 88 62 88 62 88C62 88 100.792 88 110.446 85.351C113.067 84.6356 115.457 83.2347 117.377 81.2885C119.297 79.3423 120.678 76.919 121.384 74.2612C123.187 64.2792 124.061 54.1477 123.997 44C124.061 33.8523 123.187 23.7208 121.384 13.7388ZM49.6007 62.8572V25.1429L81.7946 44L49.6007 62.8572Z" fill="white"/>
</svg>
